<svg width="580" height="284" viewBox="0 0 580 284" fill="none" xmlns="http://www.w3.org/2000/svg">
<g filter="url(#filter0_d_385_224)">
<path d="M120.453 110.928V98.688H133.701C137.829 98.688 140.853 97.968 142.773 96.528C144.789 95.088 145.797 92.64 145.797 89.184H120.453V76.944H145.797C145.797 73.488 144.789 71.04 142.773 69.6C140.853 68.16 137.829 67.44 133.701 67.44H120.453V55.2H169.989V67.44H157.893C159.717 70.128 160.917 73.296 161.493 76.944H169.989V89.184H161.493C161.109 93.6 159.765 97.488 157.461 100.848C155.253 104.112 152.517 106.608 149.253 108.336C145.989 110.064 142.725 110.928 139.461 110.928L170.853 156H151.701L120.453 110.928Z" fill="white"/>
<path d="M198.557 157.44C190.589 157.44 184.445 155.328 180.125 151.104C175.901 146.784 173.789 140.592 173.789 132.528V123.6C173.789 118.608 174.605 114.432 176.237 111.072C177.869 107.616 180.509 104.928 184.157 103.008V102.72C180.797 100.896 178.301 98.4 176.669 95.232C175.133 91.968 174.365 87.84 174.365 82.848V78.672C174.365 70.608 176.429 64.464 180.557 60.24C184.781 55.92 190.781 53.76 198.557 53.76C206.333 53.76 212.285 55.92 216.413 60.24C220.637 64.464 222.749 70.608 222.749 78.672V82.848C222.749 92.448 219.485 99.072 212.957 102.72V103.008C216.605 104.928 219.245 107.616 220.877 111.072C222.509 114.432 223.325 118.608 223.325 123.6V132.528C223.325 140.592 221.165 146.784 216.845 151.104C212.621 155.328 206.525 157.44 198.557 157.44ZM198.557 96.24C204.125 96.24 206.909 92.88 206.909 86.16V78.24C206.909 71.52 204.125 68.16 198.557 68.16C192.989 68.16 190.205 71.52 190.205 78.24V86.16C190.205 92.88 192.989 96.24 198.557 96.24ZM198.557 143.04C204.509 143.04 207.485 139.248 207.485 131.664V122.016C207.485 114.432 204.509 110.64 198.557 110.64C192.605 110.64 189.629 114.432 189.629 122.016V131.664C189.629 139.248 192.605 143.04 198.557 143.04ZM251.893 157.44C244.117 157.44 238.165 155.232 234.037 150.816C229.909 146.4 227.845 140.16 227.845 132.096V79.104C227.845 71.04 229.909 64.8 234.037 60.384C238.165 55.968 244.117 53.76 251.893 53.76C259.669 53.76 265.621 55.968 269.749 60.384C273.877 64.8 275.941 71.04 275.941 79.104V132.096C275.941 140.16 273.877 146.4 269.749 150.816C265.621 155.232 259.669 157.44 251.893 157.44ZM251.893 143.04C257.365 143.04 260.101 139.728 260.101 133.104V78.096C260.101 71.472 257.365 68.16 251.893 68.16C246.421 68.16 243.685 71.472 243.685 78.096V133.104C243.685 139.728 246.421 143.04 251.893 143.04ZM287.518 156H282.334V140.736H297.598V154.416L289.678 173.28H282.334L287.518 156ZM328.05 157.44C320.274 157.44 314.322 155.232 310.194 150.816C306.066 146.4 304.002 140.16 304.002 132.096V79.104C304.002 71.04 306.066 64.8 310.194 60.384C314.322 55.968 320.274 53.76 328.05 53.76C335.826 53.76 341.778 55.968 345.906 60.384C350.034 64.8 352.098 71.04 352.098 79.104V132.096C352.098 140.16 350.034 146.4 345.906 150.816C341.778 155.232 335.826 157.44 328.05 157.44ZM328.05 143.04C333.522 143.04 336.258 139.728 336.258 133.104V78.096C336.258 71.472 333.522 68.16 328.05 68.16C322.578 68.16 319.842 71.472 319.842 78.096V133.104C319.842 139.728 322.578 143.04 328.05 143.04ZM381.387 157.44C373.611 157.44 367.659 155.232 363.531 150.816C359.403 146.4 357.339 140.16 357.339 132.096V79.104C357.339 71.04 359.403 64.8 363.531 60.384C367.659 55.968 373.611 53.76 381.387 53.76C389.163 53.76 395.115 55.968 399.243 60.384C403.371 64.8 405.435 71.04 405.435 79.104V132.096C405.435 140.16 403.371 146.4 399.243 150.816C395.115 155.232 389.163 157.44 381.387 157.44ZM381.387 143.04C386.859 143.04 389.595 139.728 389.595 133.104V78.096C389.595 71.472 386.859 68.16 381.387 68.16C375.915 68.16 373.179 71.472 373.179 78.096V133.104C373.179 139.728 375.915 143.04 381.387 143.04ZM434.723 157.44C426.947 157.44 420.995 155.232 416.867 150.816C412.739 146.4 410.675 140.16 410.675 132.096V79.104C410.675 71.04 412.739 64.8 416.867 60.384C420.995 55.968 426.947 53.76 434.723 53.76C442.499 53.76 448.451 55.968 452.579 60.384C456.707 64.8 458.771 71.04 458.771 79.104V132.096C458.771 140.16 456.707 146.4 452.579 150.816C448.451 155.232 442.499 157.44 434.723 157.44ZM434.723 143.04C440.195 143.04 442.931 139.728 442.931 133.104V78.096C442.931 71.472 440.195 68.16 434.723 68.16C429.251 68.16 426.515 71.472 426.515 78.096V133.104C426.515 139.728 429.251 143.04 434.723 143.04Z" fill="#FF0004"/>
</g>
<rect x="2.5" y="2.5" width="575" height="199.625" rx="25.5" stroke="url(#paint0_linear_385_224)" stroke-width="5"/>
<rect x="11.4883" y="11.4873" width="557.718" height="182.342" rx="11.5" stroke="url(#paint1_linear_385_224)" stroke-width="5"/>
<defs>
<filter id="filter0_d_385_224" x="98.253" y="31.56" width="382.718" height="163.92" filterUnits="userSpaceOnUse" color-interpolation-filters="sRGB">
<feFlood flood-opacity="0" result="BackgroundImageFix"/>
<feColorMatrix in="SourceAlpha" type="matrix" values="0 0 0 0 0 0 0 0 0 0 0 0 0 0 0 0 0 0 127 0" result="hardAlpha"/>
<feOffset/>
<feGaussianBlur stdDeviation="11.1"/>
<feComposite in2="hardAlpha" operator="out"/>
<feColorMatrix type="matrix" values="0 0 0 0 1 0 0 0 0 0 0 0 0 0 0 0 0 0 0.8 0"/>
<feBlend mode="normal" in2="BackgroundImageFix" result="effect1_dropShadow_385_224"/>
<feBlend mode="normal" in="SourceGraphic" in2="effect1_dropShadow_385_224" result="shape"/>
</filter>
<linearGradient id="paint0_linear_385_224" x1="574.815" y1="3.17517" x2="27.7188" y2="188.873" gradientUnits="userSpaceOnUse">
<stop stop-color="#957B31"/>
<stop offset="1" stop-color="#FBCF52"/>
</linearGradient>
<linearGradient id="paint1_linear_385_224" x1="566.676" y1="11.8943" x2="42.5398" y2="200.42" gradientUnits="userSpaceOnUse">
<stop stop-color="#957B31"/>
<stop offset="1" stop-color="#FBCF52"/>
</linearGradient>
</defs>
</svg>
