<svg width="1455" height="820" viewBox="0 0 1455 820" fill="none" xmlns="http://www.w3.org/2000/svg">
<g opacity="0.19" filter="url(#filter0_d_385_52)">
<path d="M233.103 811C158.946 811 102.155 794.125 62.7297 760.375C24.2432 726.625 5 679 5 617.5V194.5C5 133 24.2432 85.375 62.7297 51.625C102.155 17.875 158.946 1 233.103 1C307.259 1 363.581 17.875 402.067 51.625C441.493 85.375 461.205 133 461.205 194.5V277.75H314.769V186.625C314.769 137.875 288.955 113.5 237.327 113.5C185.699 113.5 159.884 137.875 159.884 186.625V626.5C159.884 674.5 185.699 698.5 237.327 698.5C288.955 698.5 314.769 674.5 314.769 626.5V506.125H461.205V617.5C461.205 679 441.493 726.625 402.067 760.375C363.581 794.125 307.259 811 233.103 811Z" fill="#FF1313"/>
<path d="M631.314 12.25H841.112L1001.63 799.75H846.744L818.583 643.375V645.625H642.578L614.417 799.75H470.797L631.314 12.25ZM800.279 538.75L731.285 149.5H728.469L660.883 538.75H800.279Z" fill="#FF1313"/>
<path d="M1034.53 12.25H1271.08C1348.05 12.25 1405.78 28.75 1444.27 61.75C1482.76 94.75 1502 143.125 1502 206.875V605.125C1502 668.875 1482.76 717.25 1444.27 750.25C1405.78 783.25 1348.05 799.75 1271.08 799.75H1034.53V12.25ZM1268.27 687.25C1293.61 687.25 1312.85 681.25 1325.99 669.25C1340.08 657.25 1347.12 637.75 1347.12 610.75V201.25C1347.12 174.25 1340.08 154.75 1325.99 142.75C1312.85 130.75 1293.61 124.75 1268.27 124.75H1189.42V687.25H1268.27Z" fill="#FF1313"/>
<path d="M62.4 760.751L62.4045 760.755C101.952 794.61 158.877 811.5 233.103 811.5C307.325 811.5 363.783 794.611 402.394 760.754C441.95 726.891 461.705 679.116 461.705 617.5V506.125V505.625H461.205H314.769H314.269V506.125V626.5C314.269 650.413 307.84 668.259 295.068 680.134C282.288 692.015 263.072 698 237.327 698C211.581 698 192.365 692.015 179.585 680.134C166.813 668.259 160.384 650.413 160.384 626.5V186.625C160.384 162.335 166.814 144.207 179.588 132.145C192.368 120.078 211.583 114 237.327 114C263.071 114 282.286 120.078 295.065 132.145C307.839 144.207 314.269 162.335 314.269 186.625V277.75V278.25H314.769H461.205H461.705V277.75V194.5C461.705 132.884 441.95 85.1091 402.394 51.2463C363.783 17.3888 307.325 0.5 233.103 0.5C158.877 0.5 101.952 17.3902 62.4045 51.2452L62.4045 51.2452L62.4 51.2491C23.7835 85.1131 4.5 132.888 4.5 194.5V617.5C4.5 679.112 23.7835 726.887 62.4 760.751ZM631.314 11.75H630.906L630.824 12.1501L470.307 799.65L470.185 800.25H470.797H614.417H614.834L614.909 799.84L642.995 646.125H818.571L846.252 799.839L846.326 800.25H846.744H1001.63H1002.24L1002.12 799.65L841.602 12.1501L841.52 11.75H841.112H631.314ZM1034.53 11.75H1034.03V12.25V799.75V800.25H1034.53H1271.08C1348.11 800.25 1405.98 783.739 1444.6 750.63C1483.22 717.511 1502.5 668.98 1502.5 605.125V206.875C1502.5 143.02 1483.22 94.489 1444.6 61.3704C1405.98 28.2612 1348.11 11.75 1271.08 11.75H1034.53ZM1325.67 668.869L1325.66 668.875L1325.66 668.881C1312.64 680.767 1293.54 686.75 1268.27 686.75H1189.92V125.25H1268.27C1293.54 125.25 1312.64 131.233 1325.66 143.119L1325.66 143.125L1325.67 143.131C1339.6 154.998 1346.62 174.327 1346.62 201.25V610.75C1346.62 637.672 1339.6 657.002 1325.67 668.869ZM728.889 150H730.866L799.682 538.25H661.477L728.889 150Z" stroke="black"/>
</g>
<defs>
<filter id="filter0_d_385_52" x="0" y="0" width="1507" height="820" filterUnits="userSpaceOnUse" color-interpolation-filters="sRGB">
<feFlood flood-opacity="0" result="BackgroundImageFix"/>
<feColorMatrix in="SourceAlpha" type="matrix" values="0 0 0 0 0 0 0 0 0 0 0 0 0 0 0 0 0 0 127 0" result="hardAlpha"/>
<feOffset dy="4"/>
<feGaussianBlur stdDeviation="2"/>
<feComposite in2="hardAlpha" operator="out"/>
<feColorMatrix type="matrix" values="0 0 0 0 0 0 0 0 0 0 0 0 0 0 0 0 0 0 0.25 0"/>
<feBlend mode="normal" in2="BackgroundImageFix" result="effect1_dropShadow_385_52"/>
<feBlend mode="normal" in="SourceGraphic" in2="effect1_dropShadow_385_52" result="shape"/>
</filter>
</defs>
</svg>
