<svg width="177" height="115" viewBox="0 0 177 115" fill="none" xmlns="http://www.w3.org/2000/svg">
<g filter="url(#filter0_d_385_129)">
<path d="M147.818 88.8072H139.186C137.773 88.8072 136.464 88.0613 135.744 86.845L129.367 76.0739C128.647 74.8567 128.622 73.3494 129.304 72.1097L131.357 68.3731C131.42 68.2591 131.476 68.1432 131.538 68.029C131.888 67.3862 133.353 65.1717 136.906 65.1717C140.198 65.1717 141.707 67.2788 142.113 67.9706C142.197 68.1132 142.274 68.2583 142.361 68.3988L151.219 82.7011C152.869 85.3658 150.953 88.8072 147.818 88.8072Z" fill="#E50914"/>
<path d="M144.876 27.7703H138.699C137.298 27.7703 136 28.5027 135.275 29.7011L129.698 38.9279C128.939 40.1836 128.929 41.7541 129.671 43.02L131.582 46.2799L131.584 46.2836C131.618 46.3418 133.22 49.025 136.388 49.025C139.289 49.025 140.414 47.38 141.217 46.2827L148.352 33.7493C149.871 31.0827 147.945 27.7703 144.876 27.7703Z" fill="#E50914"/>
<path fill-rule="evenodd" clip-rule="evenodd" d="M132.593 56.988C132.582 56.9874 132.572 56.9815 132.567 56.9724L116.399 29.6477C115.679 28.4309 114.37 27.6846 112.957 27.6846H104.594C101.492 27.6846 99.5708 31.0622 101.156 33.7285L114.384 55.9815C114.388 55.9892 114.396 55.994 114.405 55.9946C114.425 55.9957 114.437 56.017 114.427 56.0343L99.3393 82.938C97.844 85.6043 99.7711 88.8945 102.828 88.8945H112.293C113.736 88.8945 115.067 88.1176 115.776 86.8614L132.619 57.0357C132.63 57.015 132.616 56.9894 132.593 56.988Z" fill="#E50914"/>
<path fill-rule="evenodd" clip-rule="evenodd" d="M61.711 51.103V61.8818C61.711 66.8672 64.0066 89.0669 87.1875 89.0669C109.416 89.0669 111.234 65.4314 111.234 61.8818V51.103C111.234 41.963 106.213 25 87.1875 25C67.2569 25 61.711 41.963 61.711 51.103ZM95.8232 54.7828V58.5489C95.8232 63.96 95.3484 75.9509 86.9922 75.9509C79.5031 75.9509 77.7282 64.8258 77.7282 58.5489V54.7828C77.7282 50.3241 78.7239 37.7272 86.9922 37.7272C95.8232 37.7272 95.8232 50.757 95.8232 54.7828Z" fill="white"/>
<path d="M25.6053 46.5449L25.1868 39.4307C25.0855 37.7076 26.4675 36.2633 28.1562 35.9058C33.6918 34.734 39.3169 30.82 42.0686 27.4008C42.7363 26.5711 43.7061 25.9952 44.771 25.9952H53.2983C54.9551 25.9952 56.2983 27.3383 56.2983 28.9952V84.8111C56.2983 86.468 54.9551 87.8111 53.2983 87.8111H43.5813C41.9255 87.8111 40.5829 86.4698 40.5813 84.8141L40.5482 51.0672C40.5455 48.3712 36.9979 46.8373 34.5122 47.8812C31.9901 48.9403 29.6704 49.1512 27.9343 49.0656C26.6151 49.0005 25.6829 47.8635 25.6053 46.5449Z" fill="white"/>
</g>
<rect x="25.7782" y="49.2421" width="125.972" height="15.5839" fill="#171816"/>
<path d="M68.0115 61.0705C67.1465 61.0705 66.4102 60.9225 65.8024 60.6264C65.2024 60.3225 64.7466 59.8628 64.4349 59.2472C64.1232 58.6317 63.9674 57.8525 63.9674 56.9097C63.9674 55.5227 64.3141 54.4864 65.0076 53.8007C65.7089 53.1072 66.7102 52.7605 68.0115 52.7605C68.7361 52.7605 69.379 52.8851 69.94 53.1345C70.501 53.376 70.9374 53.7422 71.2491 54.2331C71.5685 54.7162 71.7283 55.3201 71.7283 56.0447H69.6829C69.6829 55.7019 69.6127 55.4097 69.4725 55.1682C69.34 54.9188 69.1491 54.7279 68.8998 54.5955C68.6582 54.463 68.3621 54.3968 68.0115 54.3968C67.5751 54.3968 67.2167 54.4864 66.9361 54.6656C66.6556 54.8448 66.4491 55.1019 66.3167 55.437C66.1842 55.772 66.118 56.1772 66.118 56.6525V57.1785C66.118 57.6538 66.1842 58.0629 66.3167 58.4057C66.4491 58.7408 66.6517 58.9979 66.9245 59.1771C67.205 59.3485 67.5634 59.4342 67.9998 59.4342C68.3738 59.4342 68.6894 59.3719 68.9465 59.2472C69.2114 59.1226 69.4101 58.9394 69.5426 58.6979C69.6829 58.4486 69.753 58.1525 69.753 57.8096H71.7283C71.7283 58.5343 71.5724 59.1381 71.2608 59.6212C70.9569 60.1043 70.5244 60.4667 69.9634 60.7082C69.4101 60.9498 68.7595 61.0705 68.0115 61.0705Z" fill="white"/>
<path d="M80.1198 60.9303V52.9007H82.212V59.2122H86.2912V60.9303H80.1198Z" fill="white"/>
<path d="M97.6975 61.0705C96.9261 61.0705 96.2599 60.9498 95.6988 60.7082C95.1456 60.4667 94.7209 60.1043 94.4248 59.6212C94.1287 59.1381 93.9807 58.5382 93.9807 57.8213V52.9007H96.0846V57.7746C96.0846 58.2888 96.2209 58.694 96.4936 58.9901C96.7664 59.2862 97.1677 59.4342 97.6975 59.4342C98.2274 59.4342 98.6326 59.2862 98.9131 58.9901C99.1936 58.694 99.3339 58.2888 99.3339 57.7746V52.9007H101.426V57.8213C101.426 58.5382 101.278 59.1381 100.982 59.6212C100.686 60.1043 100.261 60.4667 99.7079 60.7082C99.1546 60.9498 98.4845 61.0705 97.6975 61.0705Z" fill="white"/>
<path d="M110.171 60.9303V52.9007H115.08C115.493 52.9007 115.867 52.9825 116.202 53.1462C116.537 53.3098 116.802 53.5396 116.997 53.8357C117.2 54.1318 117.301 54.4786 117.301 54.876C117.301 55.2266 117.239 55.5266 117.114 55.7759C116.997 56.0253 116.837 56.2279 116.635 56.3837C116.44 56.5395 116.218 56.6564 115.968 56.7343V56.7811C116.257 56.8434 116.518 56.9564 116.752 57.12C116.985 57.2759 117.168 57.4902 117.301 57.7629C117.441 58.0356 117.511 58.3667 117.511 58.7563C117.511 59.2161 117.402 59.6096 117.184 59.9368C116.966 60.2563 116.678 60.5017 116.319 60.6732C115.961 60.8446 115.559 60.9303 115.115 60.9303H110.171ZM112.263 59.3174H114.543C114.792 59.3174 114.991 59.2433 115.139 59.0953C115.294 58.9472 115.372 58.7213 115.372 58.4174C115.372 58.2538 115.337 58.1096 115.267 57.9849C115.205 57.8525 115.107 57.7512 114.975 57.6811C114.85 57.6109 114.694 57.5759 114.507 57.5759H112.263V59.3174ZM112.263 56.0915H114.355C114.527 56.0915 114.671 56.0564 114.788 55.9863C114.913 55.9162 115.006 55.8188 115.068 55.6941C115.139 55.5694 115.174 55.4214 115.174 55.25C115.174 55.0006 115.1 54.8058 114.952 54.6656C114.804 54.5253 114.617 54.4552 114.391 54.4552H112.263V56.0915Z" fill="white"/>
<defs>
<filter id="filter0_d_385_129" x="0.181595" y="1.90735e-06" width="176.643" height="114.067" filterUnits="userSpaceOnUse" color-interpolation-filters="sRGB">
<feFlood flood-opacity="0" result="BackgroundImageFix"/>
<feColorMatrix in="SourceAlpha" type="matrix" values="0 0 0 0 0 0 0 0 0 0 0 0 0 0 0 0 0 0 127 0" result="hardAlpha"/>
<feOffset/>
<feGaussianBlur stdDeviation="12.5"/>
<feComposite in2="hardAlpha" operator="out"/>
<feColorMatrix type="matrix" values="0 0 0 0 1 0 0 0 0 1 0 0 0 0 1 0 0 0 0.4 0"/>
<feBlend mode="normal" in2="BackgroundImageFix" result="effect1_dropShadow_385_129"/>
<feBlend mode="normal" in="SourceGraphic" in2="effect1_dropShadow_385_129" result="shape"/>
</filter>
</defs>
</svg>
