<svg width="275" height="49" viewBox="0 0 275 49" fill="none" xmlns="http://www.w3.org/2000/svg">
<path d="M8.31561 37.4062C6.12198 37.4062 4.44291 36.7833 3.27839 35.5376C2.11388 34.2918 1.53162 32.5315 1.53162 30.2566V15.3075C1.53162 13.0326 2.11388 11.2723 3.27839 10.0265C4.44291 8.78078 6.12198 8.1579 8.31561 8.1579C10.5092 8.1579 12.1883 8.78078 13.3528 10.0265C14.5173 11.2723 15.0996 13.0326 15.0996 15.3075V30.2566C15.0996 32.5315 14.5173 34.2918 13.3528 35.5376C12.1883 36.7833 10.5092 37.4062 8.31561 37.4062ZM8.31561 33.344C9.85927 33.344 10.6311 32.4096 10.6311 30.541V15.0231C10.6311 13.1545 9.85927 12.2202 8.31561 12.2202C6.77194 12.2202 6.00011 13.1545 6.00011 15.0231V30.541C6.00011 32.4096 6.77194 33.344 8.31561 33.344ZM24.6212 37.4062C22.4546 37.4062 20.8026 36.7969 19.6652 35.5782C18.5278 34.3324 17.959 32.5586 17.959 30.2566V8.56412H22.4275V30.5816C22.4275 31.5566 22.6171 32.2607 22.9963 32.694C23.4025 33.1273 23.9712 33.344 24.7024 33.344C25.4336 33.344 25.9888 33.1273 26.3679 32.694C26.7742 32.2607 26.9773 31.5566 26.9773 30.5816V8.56412H31.2833V30.2566C31.2833 32.5586 30.7146 34.3324 29.5771 35.5782C28.4397 36.7969 26.7877 37.4062 24.6212 37.4062ZM34.4658 8.56412H41.0873C43.3893 8.56412 45.0683 9.10576 46.1245 10.189C47.1807 11.2452 47.7088 12.8837 47.7088 15.1044V16.8512C47.7088 19.8031 46.7339 21.6717 44.784 22.4571V22.5383C45.8673 22.8633 46.6255 23.5268 47.0588 24.5288C47.5192 25.5309 47.7494 26.8714 47.7494 28.5505V33.5471C47.7494 34.3595 47.7765 35.023 47.8307 35.5376C47.8848 36.0251 48.0203 36.5125 48.2369 37H43.6872C43.5247 36.5396 43.4163 36.1063 43.3622 35.7001C43.308 35.2938 43.2809 34.5626 43.2809 33.5064V28.3067C43.2809 27.0068 43.0643 26.0996 42.631 25.585C42.2248 25.0705 41.5071 24.8132 40.478 24.8132H38.9343V37H34.4658V8.56412ZM40.5592 20.7509C41.4529 20.7509 42.1164 20.5207 42.5497 20.0603C43.0101 19.6 43.2403 18.8281 43.2403 17.7448V15.5512C43.2403 14.5221 43.0507 13.7774 42.6716 13.317C42.3195 12.8566 41.7508 12.6264 40.9654 12.6264H38.9343V20.7509H40.5592ZM57.3557 8.56412H63.9366C66.1573 8.56412 67.8229 9.15992 68.9332 10.3515C70.0436 11.5431 70.5987 13.2899 70.5987 15.5918V18.3948C70.5987 20.6968 70.0436 22.4435 68.9332 23.6351C67.8229 24.8267 66.1573 25.4225 63.9366 25.4225H61.8242V37H57.3557V8.56412ZM63.9366 21.3603C64.6678 21.3603 65.2095 21.1572 65.5615 20.7509C65.9407 20.3447 66.1302 19.6541 66.1302 18.6792V15.3075C66.1302 14.3325 65.9407 13.642 65.5615 13.2357C65.2095 12.8295 64.6678 12.6264 63.9366 12.6264H61.8242V21.3603H63.9366ZM75.0504 8.56412H81.1032L85.7342 37H81.2657L80.4532 31.3534V31.4347H75.3754L74.5629 37H70.4194L75.0504 8.56412ZM79.9251 27.5755L77.9346 13.5201H77.8534L75.9035 27.5755H79.9251ZM93.5921 37.4062C91.4256 37.4062 89.7871 36.7969 88.6768 35.5782C87.5664 34.3324 87.0113 32.5586 87.0113 30.2566V28.6317H91.236V30.5816C91.236 32.4232 92.0078 33.344 93.5515 33.344C94.3098 33.344 94.8785 33.1273 95.2577 32.694C95.6639 32.2336 95.867 31.5024 95.867 30.5004C95.867 29.3088 95.5962 28.2661 95.0545 27.3724C94.5129 26.4516 93.5109 25.3548 92.0485 24.082C90.2069 22.4571 88.9205 20.9947 88.1893 19.6947C87.4581 18.3677 87.0925 16.8782 87.0925 15.2262C87.0925 12.9785 87.6612 11.2452 88.7987 10.0265C89.9361 8.78078 91.5881 8.1579 93.7546 8.1579C95.8941 8.1579 97.5054 8.78078 98.5887 10.0265C99.6991 11.2452 100.254 13.0055 100.254 15.3075V16.4855H96.0295V15.0231C96.0295 14.0482 95.8399 13.3441 95.4608 12.9108C95.0816 12.4504 94.5264 12.2202 93.7952 12.2202C92.3057 12.2202 91.561 13.1274 91.561 14.9419C91.561 15.971 91.8318 16.9324 92.3734 17.8261C92.9422 18.7198 93.9577 19.8031 95.4201 21.0759C97.2888 22.7008 98.5752 24.1768 99.2793 25.5038C99.9834 26.8308 100.335 28.388 100.335 30.1754C100.335 32.5044 99.7532 34.2918 98.5887 35.5376C97.4513 36.7833 95.7858 37.4062 93.5921 37.4062ZM106.391 12.6264H101.72V8.56412H115.531V12.6264H110.86V37H106.391V12.6264ZM124.201 8.56412H136.387V12.6264H128.669V20.1416H134.803V24.2039H128.669V32.9377H136.387V37H124.201V8.56412ZM137.78 8.56412H142.289L145.214 30.6222H145.295L148.22 8.56412H152.323L148.017 37H142.086L137.78 8.56412ZM154.469 8.56412H166.656V12.6264H158.938V20.1416H165.072V24.2039H158.938V32.9377H166.656V37H154.469V8.56412ZM169.227 8.56412H174.833L179.179 25.585H179.261V8.56412H183.242V37H178.651L173.289 16.2418H173.208V37H169.227V8.56412ZM190.056 12.6264H185.385V8.56412H199.196V12.6264H194.525V37H190.056V12.6264ZM207.169 37.4062C205.002 37.4062 203.364 36.7969 202.254 35.5782C201.143 34.3324 200.588 32.5586 200.588 30.2566V28.6317H204.813V30.5816C204.813 32.4232 205.585 33.344 207.128 33.344C207.887 33.344 208.455 33.1273 208.835 32.694C209.241 32.2336 209.444 31.5024 209.444 30.5004C209.444 29.3088 209.173 28.2661 208.631 27.3724C208.09 26.4516 207.088 25.3548 205.625 24.082C203.784 22.4571 202.497 20.9947 201.766 19.6947C201.035 18.3677 200.669 16.8782 200.669 15.2262C200.669 12.9785 201.238 11.2452 202.376 10.0265C203.513 8.78078 205.165 8.1579 207.331 8.1579C209.471 8.1579 211.082 8.78078 212.166 10.0265C213.276 11.2452 213.831 13.0055 213.831 15.3075V16.4855H209.606V15.0231C209.606 14.0482 209.417 13.3441 209.038 12.9108C208.658 12.4504 208.103 12.2202 207.372 12.2202C205.883 12.2202 205.138 13.1274 205.138 14.9419C205.138 15.971 205.409 16.9324 205.95 17.8261C206.519 18.7198 207.535 19.8031 208.997 21.0759C210.866 22.7008 212.152 24.1768 212.856 25.5038C213.56 26.8308 213.912 28.388 213.912 30.1754C213.912 32.5044 213.33 34.2918 212.166 35.5376C211.028 36.7833 209.363 37.4062 207.169 37.4062Z" fill="url(#paint0_linear_385_254)"/>
<path d="M236 15L246 25L236 35M250 15L260 25L250 35M262 15L272 25L262 35" stroke="url(#paint1_linear_385_254)" stroke-width="4" stroke-linecap="round"/>
<defs>
<linearGradient id="paint0_linear_385_254" x1="107" y1="-21.5" x2="107" y2="76" gradientUnits="userSpaceOnUse">
<stop stop-color="white"/>
<stop offset="1" stop-color="#FF0000"/>
</linearGradient>
<linearGradient id="paint1_linear_385_254" x1="254" y1="15" x2="254" y2="35" gradientUnits="userSpaceOnUse">
<stop stop-color="#EFEFEF"/>
<stop offset="1" stop-color="#785959"/>
</linearGradient>
</defs>
</svg>
