<svg width="664" height="125" viewBox="0 0 664 125" fill="none" xmlns="http://www.w3.org/2000/svg">
<path d="M0.190672 2.59999H28.0547C37.4573 2.59999 44.5093 5.12266 49.2107 10.168C53.912 15.2133 56.2627 22.6093 56.2627 32.356V44.224C56.2627 53.9707 53.912 61.3667 49.2107 66.412C44.5093 71.4573 37.4573 73.98 28.0547 73.98H19.1107V123H0.190672V2.59999ZM28.0547 56.78C31.1507 56.78 33.444 55.92 34.9347 54.2C36.54 52.48 37.3427 49.556 37.3427 45.428V31.152C37.3427 27.024 36.54 24.1 34.9347 22.38C33.444 20.66 31.1507 19.8 28.0547 19.8H19.1107V56.78H28.0547ZM75.1115 2.59999H100.739L120.347 123H101.427L97.9875 99.092V99.436H76.4875L73.0475 123H55.5035L75.1115 2.59999ZM95.7515 83.096L87.3235 23.584H86.9795L78.7235 83.096H95.7515ZM153.619 124.72C144.445 124.72 137.508 122.14 132.807 116.98C128.105 111.705 125.755 104.195 125.755 94.448V87.568H143.643V95.824C143.643 103.621 146.911 107.52 153.447 107.52C156.657 107.52 159.065 106.603 160.671 104.768C162.391 102.819 163.251 99.7227 163.251 95.48C163.251 90.4347 162.104 86.02 159.811 82.236C157.517 78.3373 153.275 73.6933 147.083 68.304C139.285 61.424 133.839 55.232 130.743 49.728C127.647 44.1093 126.099 37.8027 126.099 30.808C126.099 21.2907 128.507 13.952 133.323 8.79199C138.139 3.51733 145.133 0.879993 154.307 0.879993C163.365 0.879993 170.188 3.51733 174.775 8.79199C179.476 13.952 181.827 21.4053 181.827 31.152V36.14H163.939V29.948C163.939 25.82 163.136 22.8387 161.531 21.004C159.925 19.0547 157.575 18.08 154.479 18.08C148.172 18.08 145.019 21.9213 145.019 29.604C145.019 33.9613 146.165 38.032 148.459 41.816C150.867 45.6 155.167 50.1867 161.359 55.576C169.271 62.456 174.717 68.7053 177.699 74.324C180.68 79.9427 182.171 86.536 182.171 94.104C182.171 103.965 179.705 111.533 174.775 116.808C169.959 122.083 162.907 124.72 153.619 124.72ZM207.811 19.8H188.031V2.59999H246.511V19.8H226.731V123H207.811V19.8ZM283.218 2.59999H334.818V19.8H302.138V51.62H328.11V68.82H302.138V105.8H334.818V123H283.218V2.59999ZM340.714 2.59999H359.806L372.19 95.996H372.534L384.918 2.59999H402.29L384.058 123H358.946L340.714 2.59999ZM411.378 2.59999H462.978V19.8H430.298V51.62H456.27V68.82H430.298V105.8H462.978V123H411.378V2.59999ZM473.863 2.59999H497.599L516.003 74.668H516.347V2.59999H533.203V123H513.767L491.063 35.108H490.719V123H473.863V2.59999ZM562.057 19.8H542.277V2.59999H600.757V19.8H580.977V123H562.057V19.8ZM634.513 124.72C625.34 124.72 618.403 122.14 613.701 116.98C609 111.705 606.649 104.195 606.649 94.448V87.568H624.537V95.824C624.537 103.621 627.805 107.52 634.341 107.52C637.552 107.52 639.96 106.603 641.565 104.768C643.285 102.819 644.145 99.7227 644.145 95.48C644.145 90.4347 642.999 86.02 640.705 82.236C638.412 78.3373 634.169 73.6933 627.977 68.304C620.18 61.424 614.733 55.232 611.637 49.728C608.541 44.1093 606.993 37.8027 606.993 30.808C606.993 21.2907 609.401 13.952 614.217 8.79199C619.033 3.51733 626.028 0.879993 635.201 0.879993C644.26 0.879993 651.083 3.51733 655.669 8.79199C660.371 13.952 662.721 21.4053 662.721 31.152V36.14H644.833V29.948C644.833 25.82 644.031 22.8387 642.425 21.004C640.82 19.0547 638.469 18.08 635.373 18.08C629.067 18.08 625.913 21.9213 625.913 29.604C625.913 33.9613 627.06 38.032 629.353 41.816C631.761 45.6 636.061 50.1867 642.253 55.576C650.165 62.456 655.612 68.7053 658.593 74.324C661.575 79.9427 663.065 86.536 663.065 94.104C663.065 103.965 660.6 111.533 655.669 116.808C650.853 122.083 643.801 124.72 634.513 124.72Z" fill="white" fill-opacity="0.6"/>
</svg>
